<svg id="Camada_1" data-name="Camada 1" xmlns="http://www.w3.org/2000/svg" viewBox="0 0 700 318.18"><defs><style>.cls-1{fill:#f4f4f9;fill-rule:evenodd;}</style></defs><path class="cls-1" d="M185.77,140.73l-5.37,0L185.52,126h27.4L218,140.69l-5.37.07V145H227.7v-4.21h-4.49L201.68,80h-4.79L175.2,140.77l-4.49,0V145h15.06ZM198.28,89.4l.88-2.63h.25l.84,2.63,11,31.92H187.16Z"/><path class="cls-1" d="M294.84,140.29q5.31-4.69,5.31-13.44a16.82,16.82,0,0,0-1.61-7.34,15.93,15.93,0,0,0-4.49-5.65,14.59,14.59,0,0,0-6.66-2.94,13.16,13.16,0,0,0,7.45-5,14.54,14.54,0,0,0,2.71-8.81q0-8.58-5.33-12.83T277.36,80H252.9v4.5h6.84v56l-6.84,0V145h27.78Q289.53,145,294.84,140.29Zm-30.07-55.8h12.59q7.44,0,11.27,3.1t3.84,9.31q0,6-3.54,9.11t-10.1,3.12H264.77Zm0,29.15h16.71a15.16,15.16,0,0,1,7.47,1.7,11.05,11.05,0,0,1,4.61,4.7,14.8,14.8,0,0,1,1.55,6.9q0,6.42-3.84,10t-10.59,3.57H264.77Z"/><path class="cls-1" d="M337.23,115.16l14.52-.14c.83,0,1.64,0,2.43-.11L366.43,145H375v-4.34h-5l-11.08-26.57a21.32,21.32,0,0,0,3.21-1.13,15.46,15.46,0,0,0,6.89-5.82,17.19,17.19,0,0,0,2.45-9.42,18.46,18.46,0,0,0-2.37-9.69,15,15,0,0,0-6.91-6,26.72,26.72,0,0,0-11.07-2H325.35v4.46h6.84v56l-6.84,0V145h18.71v-4.47l-6.83,0Zm0-30.67h13.89q7.68,0,11.5,3.46t3.81,9.75a12.3,12.3,0,0,1-3.81,9.42q-3.83,3.57-12,3.57H337.23Z"/><polygon class="cls-1" points="402.75 84.49 409.59 84.49 409.59 140.51 402.75 140.51 402.75 144.97 421.46 144.97 421.46 140.51 414.63 140.51 414.63 84.49 421.46 84.49 421.46 79.98 402.75 79.98 402.75 84.49"/><polygon class="cls-1" points="508.93 79.98 502.09 79.98 490.21 79.98 490.21 84.49 497.35 84.49 497.35 135.78 497.1 135.87 462.18 79.98 457.1 79.98 450.26 79.98 450.26 84.49 457.1 84.49 457.1 140.51 450.26 140.51 450.26 144.97 468.98 144.97 468.98 140.51 461.84 140.51 461.84 88.96 462.1 88.87 497.39 144.97 502.09 144.97 502.09 84.49 508.93 84.49 508.93 79.98"/><path class="cls-1" d="M571.57,84.11A23.38,23.38,0,0,0,557.85,80H534.22v4.5h6.84v56l-6.84,0V145h23.84a23.1,23.1,0,0,0,13.66-4.15,27.61,27.61,0,0,0,9.21-11.36A38.94,38.94,0,0,0,584.25,113v-1.07a38.47,38.47,0,0,0-3.38-16.49A28,28,0,0,0,571.57,84.11Zm7.64,28.9a34.69,34.69,0,0,1-2.71,14,24.11,24.11,0,0,1-7.49,9.86,17.88,17.88,0,0,1-11.16,3.64H546.1v-56h11.75A18.13,18.13,0,0,1,569,88.06a23.68,23.68,0,0,1,7.49,9.75,34.65,34.65,0,0,1,2.71,14Z"/><path class="cls-1" d="M614.49,136.8A22.63,22.63,0,0,0,633,145.91a23.41,23.41,0,0,0,10.64-2.37,22.7,22.7,0,0,0,8-6.74,31.41,31.41,0,0,0,5-10.42,48.61,48.61,0,0,0,1.74-13.46v-.84a48.61,48.61,0,0,0-1.74-13.46,31.51,31.51,0,0,0-5.08-10.45,23,23,0,0,0-8.05-6.76A23.54,23.54,0,0,0,633,79.05a22.49,22.49,0,0,0-18.55,9.12,32,32,0,0,0-5.14,10.45,47.46,47.46,0,0,0-1.79,13.46v.84a47.08,47.08,0,0,0,1.81,13.46A31.77,31.77,0,0,0,614.49,136.8ZM612.6,112a40.88,40.88,0,0,1,2.46-14.8,22.27,22.27,0,0,1,7-9.91A17.27,17.27,0,0,1,633,83.73a17.69,17.69,0,0,1,11.16,3.55,21.83,21.83,0,0,1,7,9.89A42.2,42.2,0,0,1,653.48,112v.93a42.9,42.9,0,0,1-2.35,14.87,21.61,21.61,0,0,1-6.91,9.91A17.7,17.7,0,0,1,633,141.22a17.43,17.43,0,0,1-10.93-3.52,22.06,22.06,0,0,1-7.05-9.91,41.23,41.23,0,0,1-2.46-14.87Z"/><path class="cls-1" d="M221.57,167.23A33.31,33.31,0,0,0,206.3,164H170.51v12.81l7.63,0v52.75l-7.63.06v12.68h33V229.55l-7.63-.06V215.73H206.3a33.83,33.83,0,0,0,15.27-3.23,23.73,23.73,0,0,0,10-9,27.9,27.9,0,0,0,0-27.13A24,24,0,0,0,221.57,167.23Zm-7.06,30.89c-1.87,2.09-4.6,3.14-8.21,3.14H195.89v-22.9H206.3c3.61,0,6.34,1.09,8.21,3.27a12.42,12.42,0,0,1,2.81,8.39A11.68,11.68,0,0,1,214.51,198.12Z"/><path class="cls-1" d="M314.17,174.22a35,35,0,0,0-11.24-8.39,33.85,33.85,0,0,0-27.91,0,33.41,33.41,0,0,0-11,8.39,38.49,38.49,0,0,0-7.23,12.58,46.58,46.58,0,0,0-2.55,15.65v1.23a47,47,0,0,0,2.55,15.73A38.25,38.25,0,0,0,264,232a33.34,33.34,0,0,0,11.09,8.36,32.78,32.78,0,0,0,14,3,32.42,32.42,0,0,0,13.85-3A34.49,34.49,0,0,0,314.2,232a39.09,39.09,0,0,0,7.48-12.61,44.87,44.87,0,0,0,2.68-15.73v-1.23a44.46,44.46,0,0,0-2.68-15.65A38.77,38.77,0,0,0,314.17,174.22Zm-7.45,29.46A39.05,39.05,0,0,1,304.64,217a19.63,19.63,0,0,1-6,8.87,16.15,16.15,0,0,1-19.19,0,18.47,18.47,0,0,1-5.66-8.87,43.6,43.6,0,0,1-1.85-13.36v-1.34a43.5,43.5,0,0,1,1.82-13.28,18.39,18.39,0,0,1,5.59-8.77,16.28,16.28,0,0,1,19.24.05,19.93,19.93,0,0,1,6,8.85,37.79,37.79,0,0,1,2.1,13.15Z"/><path class="cls-1" d="M398.07,209.36a26.32,26.32,0,0,0,7.87-8.37,24.64,24.64,0,0,0,3.52-12.8A23.57,23.57,0,0,0,406,175.26a22.74,22.74,0,0,0-9.91-8.41,36,36,0,0,0-15.17-3h-36.2V175l7.64,1.72v52.75l-7.64,0v12.76h33V229.47l-7.64,0V213.84l12.08.16,9.16,28.23h21.43V229.38h-7Zm-28-10v-21h10.82c3.51,0,6.2,1,8.09,3a11.32,11.32,0,0,1,2.83,8q0,4.84-2.78,7.4c-1.85,1.7-4.5,2.55-7.93,2.55Z"/><polygon class="cls-1" points="429.23 187.01 442.63 187.01 443.09 178.57 454.46 178.57 454.46 229.49 446.77 229.47 446.77 242.23 479.89 242.23 479.89 229.47 472.21 229.49 472.21 178.57 483.68 178.57 484.08 187.01 497.64 187.01 497.64 163.95 429.23 163.95 429.23 187.01"/><path class="cls-1" d="M554,164H534.8l-21.94,66.46h-5.15v11.82h27.55v-12h-4.81l2.13-8.49h23.66l2.22,8.49-4.8,0v12h27.5V230.41H576Zm-17.7,44.57,7-23.44.86-3h.3l.81,2.74,7.18,23.71Z"/><path class="cls-1" d="M653.7,205.59q-6.51-5.9-19-9.81a81.19,81.19,0,0,1-8.19-3.79,12.46,12.46,0,0,1-4.09-3.28,6.29,6.29,0,0,1-1.17-3.74,6.66,6.66,0,0,1,1.39-4.3,8.36,8.36,0,0,1,3.8-2.58,16.25,16.25,0,0,1,5.48-.86,29.6,29.6,0,0,1,6.78.75,21.15,21.15,0,0,1,4.9,1.67l2.07,10.48h13.15V171.26a36,36,0,0,0-12.24-6.43,50.2,50.2,0,0,0-15.92-1.9,35.08,35.08,0,0,0-14,2.95,23.55,23.55,0,0,0-9.6,7.66,19,19,0,0,0-3.49,11.38,20.38,20.38,0,0,0,3,11.34,24.38,24.38,0,0,0,9,7.9A99.48,99.48,0,0,0,631,210.73a38.78,38.78,0,0,1,6.68,3.36,11.35,11.35,0,0,1,3.56,3.46,8,8,0,0,1,1.09,4.14,7.15,7.15,0,0,1-1.17,4.14,7.07,7.07,0,0,1-3.44,2.61,15.67,15.67,0,0,1-5.66.89,29.11,29.11,0,0,1-9-1.32q-4.1-1.32-5.71-3.25l-1.51-10.43h-13.7v20.32a41.33,41.33,0,0,0,13.9,6.88,63.12,63.12,0,0,0,16,1.83,39.1,39.1,0,0,0,14.71-2.55,22,22,0,0,0,9.86-7.42,19.53,19.53,0,0,0,3.54-11.8Q660.19,211.48,653.7,205.59Z"/><path class="cls-1" d="M137.53,95.11a48.86,48.86,0,1,0-64.68,46.2V258.13a16.19,16.19,0,1,0,32.38,0V241.8h22.7V209.28h-22.7V141A48.84,48.84,0,0,0,137.53,95.11ZM88.67,112.42A17.31,17.31,0,1,1,106,95.11,17.31,17.31,0,0,1,88.67,112.42Z"/></svg>